<svg id="Layer_1" data-name="Layer 1" xmlns="http://www.w3.org/2000/svg" viewBox="0 0 450 450"><defs><style>.cls-1,.cls-2,.cls-3{fill:#f2f2f2;}.cls-1,.cls-2{isolation:isolate;}.cls-1{opacity:0.5;}.cls-2{opacity:0.2;}</style></defs><g id="Layer_2" data-name="Layer 2"><rect class="cls-1" x="24.5" y="25" width="1" height="400"/><rect class="cls-2" x="44.05" y="24.5" width="1" height="401"/><rect class="cls-2" x="64.1" y="24.5" width="1" height="401"/><rect class="cls-2" x="84.15" y="24.5" width="1" height="401"/><rect class="cls-2" x="104.2" y="24.5" width="1" height="401"/><rect class="cls-1" x="124.25" y="24.5" width="1" height="401"/><rect class="cls-2" x="144.3" y="24.5" width="1" height="401"/><rect class="cls-2" x="164.35" y="24.5" width="1" height="401"/><rect class="cls-2" x="184.4" y="24.5" width="1" height="401"/><rect class="cls-2" x="204.45" y="24.5" width="1" height="401"/><rect class="cls-1" x="224.5" y="24.5" width="1" height="401"/><rect class="cls-2" x="244.55" y="24.5" width="1" height="401"/><rect class="cls-2" x="264.6" y="24.5" width="1" height="401"/><rect class="cls-2" x="284.65" y="24.5" width="1" height="401"/><rect class="cls-2" x="304.7" y="24.5" width="1" height="401"/><rect class="cls-1" x="324.75" y="24.5" width="1" height="401"/><rect class="cls-2" x="344.8" y="24.5" width="1" height="401"/><rect class="cls-2" x="364.85" y="24.5" width="1" height="401"/><rect class="cls-2" x="384.9" y="24.5" width="1" height="401"/><rect class="cls-2" x="404.95" y="24.5" width="1" height="401"/><rect class="cls-1" x="424.5" y="25" width="1" height="400"/><rect class="cls-1" x="25" y="24.5" width="400" height="1"/><rect class="cls-2" x="24.5" y="44.05" width="401" height="1"/><rect class="cls-2" x="24.5" y="64.1" width="401" height="1"/><rect class="cls-2" x="24.5" y="84.15" width="401" height="1"/><rect class="cls-2" x="24.5" y="104.2" width="401" height="1"/><rect class="cls-1" x="24.5" y="124.25" width="401" height="1"/><rect class="cls-2" x="24.5" y="144.3" width="401" height="1"/><rect class="cls-2" x="24.5" y="164.35" width="401" height="1"/><rect class="cls-2" x="24.5" y="184.4" width="401" height="1"/><rect class="cls-2" x="24.5" y="204.45" width="401" height="1"/><rect class="cls-1" x="24.5" y="224.5" width="401" height="1"/><rect class="cls-2" x="24.5" y="244.55" width="401" height="1"/><rect class="cls-2" x="24.5" y="264.6" width="401" height="1"/><rect class="cls-2" x="24.5" y="284.65" width="401" height="1"/><rect class="cls-2" x="24.5" y="304.7" width="401" height="1"/><rect class="cls-1" x="24.5" y="324.75" width="401" height="1"/><rect class="cls-2" x="24.5" y="344.8" width="401" height="1"/><rect class="cls-2" x="24.5" y="364.85" width="401" height="1"/><rect class="cls-2" x="24.5" y="384.9" width="401" height="1"/><rect class="cls-2" x="24.5" y="404.95" width="401" height="1"/><rect class="cls-1" x="25" y="424.5" width="400" height="1"/><rect class="cls-3" x="24.5" y="21.5" width="1" height="7"/><rect class="cls-3" x="21.5" y="24.5" width="7" height="1"/><rect class="cls-3" x="424.5" y="21.5" width="1" height="7"/><rect class="cls-3" x="421.5" y="24.5" width="7" height="1"/><rect class="cls-3" x="24.5" y="121.5" width="1" height="7"/><rect class="cls-3" x="21.5" y="124.5" width="7" height="1"/><rect class="cls-3" x="424.5" y="121.5" width="1" height="7"/><rect class="cls-3" x="421.5" y="124.5" width="7" height="1"/><rect class="cls-3" x="24.5" y="221.5" width="1" height="7"/><rect class="cls-3" x="21.5" y="224.5" width="7" height="1"/><rect class="cls-3" x="424.5" y="221.5" width="1" height="7"/><rect class="cls-3" x="421.5" y="224.5" width="7" height="1"/><rect class="cls-3" x="24.5" y="321.5" width="1" height="7"/><rect class="cls-3" x="21.5" y="324.5" width="7" height="1"/><rect class="cls-3" x="424.5" y="321.5" width="1" height="7"/><rect class="cls-3" x="421.5" y="324.5" width="7" height="1"/><rect class="cls-3" x="24.5" y="421.5" width="1" height="7"/><rect class="cls-3" x="21.5" y="424.5" width="7" height="1"/><rect class="cls-3" x="124.5" y="21.5" width="1" height="7"/><rect class="cls-3" x="121.5" y="24.5" width="7" height="1"/><rect class="cls-3" x="124.5" y="121.5" width="1" height="7"/><rect class="cls-3" x="121.5" y="124.5" width="7" height="1"/><rect class="cls-3" x="124.5" y="221.5" width="1" height="7"/><rect class="cls-3" x="121.5" y="224.5" width="7" height="1"/><rect class="cls-3" x="124.5" y="321.5" width="1" height="7"/><rect class="cls-3" x="121.5" y="324.5" width="7" height="1"/><rect class="cls-3" x="124.5" y="421.5" width="1" height="7"/><rect class="cls-3" x="121.5" y="424.5" width="7" height="1"/><rect class="cls-3" x="224.5" y="21.5" width="1" height="7"/><rect class="cls-3" x="221.5" y="24.5" width="7" height="1"/><rect class="cls-3" x="224.5" y="121.5" width="1" height="7"/><rect class="cls-3" x="221.5" y="124.5" width="7" height="1"/><rect class="cls-3" x="224.5" y="221.5" width="1" height="7"/><rect class="cls-3" x="221.5" y="224.5" width="7" height="1"/><rect class="cls-3" x="224.5" y="321.5" width="1" height="7"/><rect class="cls-3" x="221.5" y="324.5" width="7" height="1"/><rect class="cls-3" x="224.5" y="421.5" width="1" height="7"/><rect class="cls-3" x="221.5" y="424.5" width="7" height="1"/><rect class="cls-3" x="324.5" y="21.5" width="1" height="7"/><rect class="cls-3" x="321.5" y="24.5" width="7" height="1"/><rect class="cls-3" x="324.5" y="121.5" width="1" height="7"/><rect class="cls-3" x="321.5" y="124.5" width="7" height="1"/><rect class="cls-3" x="324.5" y="221.5" width="1" height="7"/><rect class="cls-3" x="321.5" y="224.5" width="7" height="1"/><rect class="cls-3" x="324.5" y="321.5" width="1" height="7"/><rect class="cls-3" x="321.5" y="324.5" width="7" height="1"/><rect class="cls-3" x="324.5" y="421.5" width="1" height="7"/><rect class="cls-3" x="321.5" y="424.5" width="7" height="1"/><rect class="cls-3" x="424.5" y="421.5" width="1" height="7"/><rect class="cls-3" x="421.5" y="424.5" width="7" height="1"/><rect class="cls-3" x="74.5" y="74.5" width="1" height="1"/><rect class="cls-3" x="174.5" y="74.5" width="1" height="1"/><rect class="cls-3" x="274.5" y="74.5" width="1" height="1"/><rect class="cls-3" x="374.5" y="74.5" width="1" height="1"/><rect class="cls-3" x="74.5" y="174.5" width="1" height="1"/><rect class="cls-3" x="174.5" y="174.5" width="1" height="1"/><rect class="cls-3" x="274.5" y="174.5" width="1" height="1"/><rect class="cls-3" x="374.5" y="174.5" width="1" height="1"/><rect class="cls-3" x="74.5" y="274.5" width="1" height="1"/><rect class="cls-3" x="174.5" y="274.5" width="1" height="1"/><rect class="cls-3" x="274.5" y="274.5" width="1" height="1"/><rect class="cls-3" x="374.5" y="274.5" width="1" height="1"/><rect class="cls-3" x="74.5" y="374.5" width="1" height="1"/><rect class="cls-3" x="174.5" y="374.5" width="1" height="1"/><rect class="cls-3" x="274.5" y="374.5" width="1" height="1"/><rect class="cls-3" x="374.5" y="374.5" width="1" height="1"/></g></svg>